<?xml version="1.0" encoding="UTF-8" standalone="no"?>
<!-- This is a Stata 16.0 generated SVG file (http://www.stata.com) -->

<svg version="1.1" width="5.50in" height="4.00in" viewBox="0 0 3960 2880" xmlns="http://www.w3.org/2000/svg" xmlns:xlink="http://www.w3.org/1999/xlink">
	<desc>Stata Graph - Graph</desc>
	<rect x="0" y="0" width="3960" height="2880" style="fill:#EAF2F3;stroke:none"/>
	<rect x="0.00" y="0.00" width="3959.88" height="2880.00" style="fill:#FFFFFF"/>
	<rect x="2.88" y="2.88" width="3954.12" height="2874.24" style="fill:none;stroke:#FFFFFF;stroke-width:5.76"/>
	<rect x="560.71" y="201.72" width="3298.31" height="2239.94" style="fill:#FFFFFF"/>
	<rect x="562.87" y="203.88" width="3293.99" height="2235.63" style="fill:none;stroke:#FFFFFF;stroke-width:4.32"/>
	<line x1="560.71" y1="2394.14" x2="3859.02" y2="2394.14" style="stroke:#EAF2F3;stroke-width:4.32"/>
	<line x1="560.71" y1="1683.92" x2="3859.02" y2="1683.92" style="stroke:#EAF2F3;stroke-width:4.32"/>
	<line x1="560.71" y1="973.70" x2="3859.02" y2="973.70" style="stroke:#EAF2F3;stroke-width:4.32"/>
	<line x1="560.71" y1="263.47" x2="3859.02" y2="263.47" style="stroke:#EAF2F3;stroke-width:4.32"/>
	<line x1="608.23" y1="2441.66" x2="608.23" y2="201.72" style="stroke:#EAF2F3;stroke-width:4.32"/>
	<line x1="1537.22" y1="2441.66" x2="1537.22" y2="201.72" style="stroke:#EAF2F3;stroke-width:4.32"/>
	<line x1="2530.19" y1="2441.66" x2="2530.19" y2="201.72" style="stroke:#EAF2F3;stroke-width:4.32"/>
	<line x1="3491.24" y1="2441.66" x2="3491.24" y2="201.72" style="stroke:#EAF2F3;stroke-width:4.32"/>
	<path d=" M608.11 249.24 L640.16 249.36 L672.21 249.36 L704.26 249.36 L736.31 249.36 L768.24 249.36 L800.29 249.36 L832.34 249.36 L864.39 249.36 L896.45 249.36 L928.50 249.36 L960.55 249.36 L992.48 249.36 L1024.53 249.36 L1056.58 249.36 L1088.63 249.36 L1120.68 249.49 L1152.73 249.49 L1184.78 249.49 L1216.71 249.49 L1248.76 249.61 L1280.81 249.61 L1312.86 249.74 L1344.91 249.74 L1376.97 249.86 L1409.02 249.98 L1440.94 250.11 L1473.00 250.23 L1505.05 250.48 L1537.10 250.60 L1569.15 250.85 L1601.20 251.10 L1633.25 251.47 L1665.18 251.84 L1697.23 252.33 L1729.28 252.95 L1761.33 253.57 L1793.38 254.31 L1825.44 255.30 L1857.49 256.29 L1889.41 257.66 L1921.47 259.14 L1953.52 260.87 L1985.57 262.98 L2017.62 265.33 L2049.67 268.17 L2081.72 271.64 L2113.65 275.48 L2145.70 280.18 L2177.75 285.50 L2209.80 291.81 L2241.86 299.24 L2273.91 307.78 L2305.96 317.68 L2337.89 329.19 L2369.94 342.43 L2401.99 357.65 L2434.04 375.10 L2466.09 394.77 L2498.14 417.05 L2530.19 442.17 L2562.24 470.02 L2594.17 500.83 L2626.22 534.62 L2658.27 571.25 L2690.32 610.60 L2722.38 652.31 L2754.43 695.99 L2786.48 741.41 L2818.41 787.82 L2850.46 834.97 L2882.51 881.99 L2914.56 928.40 L2946.61 973.82 L2978.66 1017.75 L3010.71 1059.83 L3042.64 1099.80 L3074.69 1137.30 L3106.74 1172.32 L3138.80 1204.74 L3170.85 1234.57 L3202.90 1262.04 L3234.95 1286.92 L3266.88 1309.56 L3298.93 1330.11 L3330.98 1348.55 L3363.03 1365.25 L3395.08 1380.10 L3427.13 1393.47 L3459.18 1405.35 L3491.11 1415.99 L3523.16 1425.52 L3555.21 1433.94 L3587.26 1441.49 L3619.32 1448.17 L3651.37 1453.98 L3683.42 1459.31 L3715.35 1463.88 L3747.40 1467.97 L3779.45 1471.68 L3811.50 1474.90" stroke-linejoin="round" style="fill:none;stroke:#1A476F;stroke-width:4.32"/>
	<path d=" M608.11 2394.27 L640.16 2394.27 L672.21 2394.27 L704.26 2394.27 L736.31 2394.27 L768.24 2394.27 L800.29 2394.27 L832.34 2394.27 L864.39 2394.27 L896.45 2394.27 L928.50 2394.27 L960.55 2394.27 L992.48 2394.27 L1024.53 2394.27 L1056.58 2394.27 L1088.63 2394.27 L1120.68 2394.27 L1152.73 2394.14 L1184.78 2394.14 L1216.71 2394.14 L1248.76 2394.14 L1280.81 2394.14 L1312.86 2394.14 L1344.91 2394.14 L1376.97 2394.02 L1409.02 2394.02 L1440.94 2394.02 L1473.00 2393.89 L1505.05 2393.89 L1537.10 2393.77 L1569.15 2393.77 L1601.20 2393.65 L1633.25 2393.52 L1665.18 2393.40 L1697.23 2393.28 L1729.28 2393.03 L1761.33 2392.78 L1793.38 2392.53 L1825.44 2392.29 L1857.49 2391.91 L1889.41 2391.54 L1921.47 2391.05 L1953.52 2390.43 L1985.57 2389.69 L2017.62 2388.94 L2049.67 2387.95 L2081.72 2386.96 L2113.65 2385.60 L2145.70 2384.12 L2177.75 2382.39 L2209.80 2380.41 L2241.86 2378.05 L2273.91 2375.33 L2305.96 2372.24 L2337.89 2368.65 L2369.94 2364.57 L2401.99 2359.99 L2434.04 2354.91 L2466.09 2349.22 L2498.14 2342.91 L2530.19 2336.10 L2562.24 2328.80 L2594.17 2321.13 L2626.22 2313.08 L2658.27 2304.92 L2690.32 2296.75 L2722.38 2288.83 L2754.43 2281.53 L2786.48 2274.84 L2818.41 2269.15 L2850.46 2264.57 L2882.51 2261.35 L2914.56 2259.50 L2946.61 2259.13 L2978.66 2260.12 L3010.71 2262.47 L3042.64 2265.93 L3074.69 2270.51 L3106.74 2275.83 L3138.80 2281.90 L3170.85 2288.33 L3202.90 2295.14 L3234.95 2302.07 L3266.88 2309.00 L3298.93 2315.81 L3330.98 2322.37 L3363.03 2328.68 L3395.08 2334.62 L3427.13 2340.19 L3459.18 2345.38 L3491.11 2350.21 L3523.16 2354.66 L3555.21 2358.75 L3587.26 2362.46 L3619.32 2365.80 L3651.37 2368.90 L3683.42 2371.62 L3715.35 2374.09 L3747.40 2376.32 L3779.45 2378.30 L3811.50 2380.16" stroke-linejoin="round" style="fill:none;stroke:#90353B;stroke-width:4.32"/>
	<path d=" M608.11 2394.27 L640.16 2394.27 L672.21 2394.27 L704.26 2394.27 L736.31 2394.27 L768.24 2394.27 L800.29 2394.27 L832.34 2394.27 L864.39 2394.27 L896.45 2394.27 L928.50 2394.27 L960.55 2394.27 L992.48 2394.27 L1024.53 2394.14 L1056.58 2394.14 L1088.63 2394.14 L1120.68 2394.14 L1152.73 2394.14 L1184.78 2394.14 L1216.71 2394.14 L1248.76 2394.02 L1280.81 2394.02 L1312.86 2394.02 L1344.91 2393.89 L1376.97 2393.89 L1409.02 2393.77 L1440.94 2393.77 L1473.00 2393.65 L1505.05 2393.52 L1537.10 2393.40 L1569.15 2393.15 L1601.20 2393.03 L1633.25 2392.78 L1665.18 2392.53 L1697.23 2392.16 L1729.28 2391.79 L1761.33 2391.42 L1793.38 2390.92 L1825.44 2390.31 L1857.49 2389.56 L1889.41 2388.70 L1921.47 2387.71 L1953.52 2386.59 L1985.57 2385.11 L2017.62 2383.50 L2049.67 2381.64 L2081.72 2379.29 L2113.65 2376.69 L2145.70 2373.60 L2177.75 2369.89 L2209.80 2365.56 L2241.86 2360.61 L2273.91 2354.66 L2305.96 2347.86 L2337.89 2339.94 L2369.94 2330.78 L2401.99 2320.14 L2434.04 2307.89 L2466.09 2293.78 L2498.14 2277.81 L2530.19 2259.50 L2562.24 2238.95 L2594.17 2215.81 L2626.22 2190.07 L2658.27 2161.73 L2690.32 2130.55 L2722.38 2096.76 L2754.43 2060.38 L2786.48 2021.64 L2818.41 1980.80 L2850.46 1938.36 L2882.51 1894.55 L2914.56 1849.87 L2946.61 1804.83 L2978.66 1759.90 L3010.71 1715.60 L3042.64 1672.16 L3074.69 1630.09 L3106.74 1589.74 L3138.80 1551.25 L3170.85 1514.87 L3202.90 1480.72 L3234.95 1448.79 L3266.88 1419.21 L3298.93 1391.98 L3330.98 1366.86 L3363.03 1343.97 L3395.08 1323.05 L3427.13 1304.12 L3459.18 1287.04 L3491.11 1271.57 L3523.16 1257.59 L3555.21 1245.09 L3587.26 1233.95 L3619.32 1223.93 L3651.37 1214.89 L3683.42 1206.97 L3715.35 1199.79 L3747.40 1193.48 L3779.45 1187.79 L3811.50 1182.84" stroke-linejoin="round" style="fill:none;stroke:#55752F;stroke-width:4.32"/>
	<line x1="560.71" y1="2441.66" x2="560.71" y2="201.72" style="stroke:#000000;stroke-width:4.32"/>
	<line x1="560.71" y1="2394.14" x2="530.64" y2="2394.14" style="stroke:#000000;stroke-width:4.32"/>
	<text x="515.67" y="2415.18" style="font-family:'Helvetica';font-size:60.02px;fill:#000000" text-anchor="end">0</text>
	<line x1="560.71" y1="1683.92" x2="530.64" y2="1683.92" style="stroke:#000000;stroke-width:4.32"/>
	<text x="515.67" y="1704.96" style="font-family:'Helvetica';font-size:60.02px;fill:#000000" text-anchor="end">20,000,000</text>
	<line x1="560.71" y1="973.70" x2="530.64" y2="973.70" style="stroke:#000000;stroke-width:4.32"/>
	<text x="515.67" y="994.73" style="font-family:'Helvetica';font-size:60.02px;fill:#000000" text-anchor="end">40,000,000</text>
	<line x1="560.71" y1="263.47" x2="530.64" y2="263.47" style="stroke:#000000;stroke-width:4.32"/>
	<text x="515.67" y="284.51" style="font-family:'Helvetica';font-size:60.02px;fill:#000000" text-anchor="end">60,000,000</text>
	<text x="157.66" y="1321.69" style="font-family:'Helvetica';font-size:60.02px;fill:#000000" transform="rotate(-90 157.66,1321.69)" text-anchor="middle">Population</text>
	<line x1="560.71" y1="2441.66" x2="3859.02" y2="2441.66" style="stroke:#000000;stroke-width:4.32"/>
	<line x1="608.23" y1="2441.66" x2="608.23" y2="2471.74" style="stroke:#000000;stroke-width:4.32"/>
	<text x="619.69" y="2504.35" style="font-family:'Helvetica';font-size:60.02px;fill:#000000" transform="rotate(-33 619.69,2504.35)" text-anchor="end">2020-02-01</text>
	<line x1="1537.22" y1="2441.66" x2="1537.22" y2="2471.74" style="stroke:#000000;stroke-width:4.32"/>
	<text x="1548.68" y="2504.35" style="font-family:'Helvetica';font-size:60.02px;fill:#000000" transform="rotate(-33 1548.68,2504.35)" text-anchor="end">2020-03-01</text>
	<line x1="2530.19" y1="2441.66" x2="2530.19" y2="2471.74" style="stroke:#000000;stroke-width:4.32"/>
	<text x="2541.65" y="2504.35" style="font-family:'Helvetica';font-size:60.02px;fill:#000000" transform="rotate(-33 2541.65,2504.35)" text-anchor="end">2020-04-01</text>
	<line x1="3491.24" y1="2441.66" x2="3491.24" y2="2471.74" style="stroke:#000000;stroke-width:4.32"/>
	<text x="3502.69" y="2504.35" style="font-family:'Helvetica';font-size:60.02px;fill:#000000" transform="rotate(-33 3502.69,2504.35)" text-anchor="end">2020-05-01</text>
	<text x="2209.93" y="2746.10" style="font-family:'Helvetica';font-size:60.02px;fill:#000000" text-anchor="middle">Date</text>
	<rect x="3368.85" y="227.58" width="464.31" height="227.95" style="fill:#FFFFFF"/>
	<rect x="3371.01" y="229.74" width="459.99" height="223.63" style="fill:none;stroke:#EAF2F3;stroke-width:4.32"/>
	<line x1="3396.94" y1="256.67" x2="3526.50" y2="256.67" style="stroke:#1A476F;stroke-width:4.32"/>
	<line x1="3396.94" y1="341.56" x2="3526.50" y2="341.56" style="stroke:#90353B;stroke-width:4.32"/>
	<line x1="3396.94" y1="426.58" x2="3526.50" y2="426.58" style="stroke:#55752F;stroke-width:4.32"/>
	<text x="3586.52" y="272.46" style="font-family:'Helvetica';font-size:45.05px;fill:#000000">Susceptible</text>
	<text x="3586.52" y="357.36" style="font-family:'Helvetica';font-size:45.05px;fill:#000000">Infected</text>
	<text x="3586.52" y="442.38" style="font-family:'Helvetica';font-size:45.05px;fill:#000000">Recovered</text>
	<text x="2209.93" y="166.16" style="font-family:'Helvetica';font-size:74.99px;fill:#1E2D53" text-anchor="middle">SIR Model</text>
</svg>
