<?xml version="1.0" encoding="UTF-8" standalone="no"?>
<!-- This is a Stata 16.0 generated SVG file (http://www.stata.com) -->

<svg version="1.1" width="5.50in" height="4.00in" viewBox="0 0 3960 2880" xmlns="http://www.w3.org/2000/svg" xmlns:xlink="http://www.w3.org/1999/xlink">
	<desc>Stata Graph - Graph</desc>
	<rect x="0" y="0" width="3960" height="2880" style="fill:#EAF2F3;stroke:none"/>
	<rect x="0.00" y="0.00" width="3959.88" height="2880.00" style="fill:#FFFFFF"/>
	<rect x="2.88" y="2.88" width="3954.12" height="2874.24" style="fill:none;stroke:#EAF2F3;stroke-width:5.76"/>
	<rect x="467.28" y="235.38" width="2667.06" height="2179.31" style="fill:#FFFFFF"/>
	<rect x="470.16" y="238.26" width="2661.30" height="2173.55" style="fill:none;stroke:#FFFFFF;stroke-width:5.76"/>
	<line x1="467.28" y1="2351.32" x2="3134.34" y2="2351.32" style="stroke:#EAF2F3;stroke-width:5.76"/>
	<line x1="467.28" y1="1838.24" x2="3134.34" y2="1838.24" style="stroke:#EAF2F3;stroke-width:5.76"/>
	<line x1="467.28" y1="1325.03" x2="3134.34" y2="1325.03" style="stroke:#EAF2F3;stroke-width:5.76"/>
	<line x1="467.28" y1="811.83" x2="3134.34" y2="811.83" style="stroke:#EAF2F3;stroke-width:5.76"/>
	<line x1="530.64" y1="2414.69" x2="530.64" y2="235.38" style="stroke:#EAF2F3;stroke-width:5.76"/>
	<line x1="1038.63" y1="2414.69" x2="1038.63" y2="235.38" style="stroke:#EAF2F3;stroke-width:5.76"/>
	<line x1="1546.75" y1="2414.69" x2="1546.75" y2="235.38" style="stroke:#EAF2F3;stroke-width:5.76"/>
	<line x1="2054.74" y1="2414.69" x2="2054.74" y2="235.38" style="stroke:#EAF2F3;stroke-width:5.76"/>
	<line x1="2562.86" y1="2414.69" x2="2562.86" y2="235.38" style="stroke:#EAF2F3;stroke-width:5.76"/>
	<line x1="3070.98" y1="2414.69" x2="3070.98" y2="235.38" style="stroke:#EAF2F3;stroke-width:5.76"/>
	<path d=" M530.52 2351.45 L555.88 2351.45 L581.38 2351.45 L606.75 2351.45 L632.12 2351.45 L657.48 2351.45 L682.98 2351.45 L708.35 2351.45 L733.71 2351.45 L759.21 2351.45 L784.58 2351.45 L809.94 2351.32 L835.31 2351.32 L860.80 2351.32 L886.17 2351.32 L911.54 2351.32 L936.91 2351.32 L962.40 2351.32 L987.77 2351.32 L1013.14 2351.32 L1038.63 2351.20 L1064.00 2351.20 L1089.37 2351.20 L1114.74 2351.20 L1140.23 2351.08 L1165.60 2351.08 L1190.97 2350.95 L1216.46 2350.95 L1241.83 2350.83 L1267.20 2350.70 L1292.57 2350.58 L1318.06 2350.46 L1343.43 2350.21 L1368.80 2349.96 L1394.29 2349.71 L1419.66 2349.47 L1445.03 2349.10 L1470.40 2348.60 L1495.89 2348.11 L1521.26 2347.49 L1546.63 2346.87 L1572.00 2346.00 L1597.49 2345.01 L1622.86 2343.77 L1648.23 2342.41 L1673.72 2340.80 L1699.09 2338.82 L1724.46 2336.47 L1749.83 2333.75 L1775.32 2330.53 L1800.69 2326.82 L1826.06 2322.37 L1851.55 2317.17 L1876.92 2311.10 L1902.29 2304.05 L1927.65 2295.76 L1953.15 2286.11 L1978.52 2274.97 L2003.88 2262.10 L2029.38 2247.25 L2054.74 2230.42 L2080.11 2211.23 L2105.48 2189.58 L2130.97 2165.45 L2156.34 2138.84 L2181.71 2109.51 L2207.08 2077.95 L2232.57 2044.29 L2257.94 2008.90 L2283.31 1972.39 L2308.80 1935.51 L2334.17 1899.00 L2359.54 1863.73 L2384.91 1830.69 L2410.40 1800.87 L2435.77 1774.75 L2461.14 1753.22 L2486.63 1736.64 L2512.00 1725.25 L2537.37 1719.31 L2562.74 1718.57 L2588.23 1722.65 L2613.60 1731.32 L2638.97 1743.94 L2664.46 1760.03 L2689.83 1778.96 L2715.20 1800.25 L2740.57 1823.14 L2766.06 1847.40 L2791.43 1872.40 L2816.80 1897.89 L2842.29 1923.26 L2867.66 1948.50 L2893.03 1973.26 L2918.40 1997.26 L2943.89 2020.53 L2969.26 2042.81 L2994.63 2064.21 L3019.99 2084.51 L3045.49 2103.69 L3070.86 2121.76" stroke-linejoin="round" style="fill:none;stroke:#1A476F;stroke-width:5.76"/>
	<path d=" M530.52 2351.45 L555.88 2351.45 L581.38 2351.45 L606.75 2351.45 L632.12 2351.45 L657.48 2351.45 L682.98 2351.45 L708.35 2351.32 L733.71 2351.32 L759.21 2351.32 L784.58 2351.32 L809.94 2351.32 L835.31 2351.32 L860.80 2351.20 L886.17 2351.20 L911.54 2351.08 L936.91 2351.08 L962.40 2350.95 L987.77 2350.70 L1013.14 2350.58 L1038.63 2350.33 L1064.00 2349.96 L1089.37 2349.47 L1114.74 2348.85 L1140.23 2348.11 L1165.60 2346.99 L1190.97 2345.75 L1216.46 2343.90 L1241.83 2341.67 L1267.20 2338.58 L1292.57 2334.74 L1318.06 2329.67 L1343.43 2322.98 L1368.80 2314.44 L1394.29 2303.31 L1419.66 2289.08 L1445.03 2270.88 L1470.40 2247.87 L1495.89 2218.78 L1521.26 2182.65 L1546.63 2138.47 L1572.00 2085.25 L1597.49 2022.76 L1622.86 1951.23 L1648.23 1872.15 L1673.72 1788.12 L1699.09 1702.61 L1724.46 1620.31 L1749.83 1545.81 L1775.32 1483.31 L1800.69 1436.04 L1826.06 1405.60 L1851.55 1392.23 L1876.92 1394.83 L1902.29 1411.41 L1927.65 1439.50 L1953.15 1476.51 L1978.52 1519.94 L2003.88 1567.47 L2029.38 1617.34 L2054.74 1668.08 L2080.11 1718.45 L2105.48 1767.45 L2130.97 1814.60 L2156.34 1859.53 L2181.71 1901.85 L2207.08 1941.45 L2232.57 1978.33 L2257.94 2012.49 L2283.31 2043.92 L2308.80 2072.75 L2334.17 2099.24 L2359.54 2123.37 L2384.91 2145.40 L2410.40 2165.45 L2435.77 2183.64 L2461.14 2200.10 L2486.63 2215.07 L2512.00 2228.56 L2537.37 2240.81 L2562.74 2251.83 L2588.23 2261.85 L2613.60 2270.88 L2638.97 2278.93 L2664.46 2286.23 L2689.83 2292.79 L2715.20 2298.73 L2740.57 2304.05 L2766.06 2308.88 L2791.43 2313.21 L2816.80 2317.04 L2842.29 2320.63 L2867.66 2323.73 L2893.03 2326.57 L2918.40 2329.05 L2943.89 2331.40 L2969.26 2333.38 L2994.63 2335.24 L3019.99 2336.84 L3045.49 2338.33 L3070.86 2339.69" stroke-linejoin="round" style="fill:none;stroke:#90353B;stroke-width:5.76"/>
	<path d=" M530.52 2351.45 L555.88 2351.45 L581.38 2351.45 L606.75 2351.45 L632.12 2351.45 L657.48 2351.32 L682.98 2351.32 L708.35 2351.32 L733.71 2351.32 L759.21 2351.32 L784.58 2351.20 L809.94 2351.08 L835.31 2350.95 L860.80 2350.83 L886.17 2350.46 L911.54 2350.09 L936.91 2349.47 L962.40 2348.60 L987.77 2347.36 L1013.14 2345.63 L1038.63 2343.03 L1064.00 2339.32 L1089.37 2334.00 L1114.74 2326.33 L1140.23 2315.31 L1165.60 2299.72 L1190.97 2277.57 L1216.46 2246.63 L1241.83 2203.81 L1267.20 2145.77 L1292.57 2069.29 L1318.06 1972.14 L1343.43 1854.20 L1368.80 1719.31 L1394.29 1576.38 L1419.66 1437.40 L1445.03 1316.12 L1470.40 1223.68 L1495.89 1166.13 L1521.26 1143.86 L1546.63 1153.01 L1572.00 1187.42 L1597.49 1240.26 L1622.86 1304.98 L1648.23 1376.76 L1673.72 1451.26 L1699.09 1525.76 L1724.46 1598.16 L1749.83 1667.34 L1775.32 1732.18 L1800.69 1792.57 L1826.06 1848.26 L1851.55 1899.37 L1876.92 1945.78 L1902.29 1988.11 L1927.65 2026.22 L1953.15 2060.75 L1978.52 2091.69 L2003.88 2119.66 L2029.38 2144.65 L2054.74 2167.05 L2080.11 2187.10 L2105.48 2205.05 L2130.97 2221.01 L2156.34 2235.37 L2181.71 2248.11 L2207.08 2259.50 L2232.57 2269.65 L2257.94 2278.68 L2283.31 2286.72 L2308.80 2293.90 L2334.17 2300.21 L2359.54 2305.91 L2384.91 2310.98 L2410.40 2315.43 L2435.77 2319.39 L2461.14 2322.98 L2486.63 2326.20 L2512.00 2328.92 L2537.37 2331.52 L2562.74 2333.63 L2588.23 2335.61 L2613.60 2337.46 L2638.97 2338.95 L2664.46 2340.31 L2689.83 2341.55 L2715.20 2342.66 L2740.57 2343.65 L2766.06 2344.52 L2791.43 2345.26 L2816.80 2346.00 L2842.29 2346.62 L2867.66 2347.12 L2893.03 2347.61 L2918.40 2347.98 L2943.89 2348.35 L2969.26 2348.72 L2994.63 2349.10 L3019.99 2349.34 L3045.49 2349.59 L3070.86 2349.71" stroke-linejoin="round" style="fill:none;stroke:#55752F;stroke-width:5.76"/>
	<path d=" M530.52 2351.45 L555.88 2351.45 L581.38 2351.45 L606.75 2351.45 L632.12 2351.32 L657.48 2351.32 L682.98 2351.32 L708.35 2351.32 L733.71 2351.20 L759.21 2351.08 L784.58 2350.83 L809.94 2350.46 L835.31 2349.96 L860.80 2349.10 L886.17 2347.73 L911.54 2345.51 L936.91 2342.04 L962.40 2336.47 L987.77 2327.56 L1013.14 2313.45 L1038.63 2291.55 L1064.00 2257.39 L1089.37 2205.29 L1114.74 2128.07 L1140.23 2017.93 L1165.60 1869.92 L1190.97 1686.39 L1216.46 1481.83 L1241.83 1282.21 L1267.20 1116.38 L1292.57 1005.38 L1318.06 955.01 L1343.43 958.60 L1368.80 1003.40 L1394.29 1075.54 L1419.66 1163.41 L1445.03 1258.58 L1470.40 1354.98 L1495.89 1448.91 L1521.26 1538.01 L1546.63 1621.05 L1572.00 1697.66 L1597.49 1767.45 L1622.86 1830.81 L1648.23 1887.99 L1673.72 1939.35 L1699.09 1985.38 L1724.46 2026.47 L1749.83 2063.22 L1775.32 2095.90 L1800.69 2124.98 L1826.06 2150.84 L1851.55 2173.74 L1876.92 2194.16 L1902.29 2212.22 L1927.65 2228.31 L1953.15 2242.42 L1978.52 2255.04 L2003.88 2266.18 L2029.38 2276.08 L2054.74 2284.74 L2080.11 2292.54 L2105.48 2299.35 L2130.97 2305.41 L2156.34 2310.73 L2181.71 2315.43 L2207.08 2319.64 L2232.57 2323.36 L2257.94 2326.57 L2283.31 2329.42 L2308.80 2332.02 L2334.17 2334.25 L2359.54 2336.23 L2384.91 2338.08 L2410.40 2339.57 L2435.77 2340.93 L2461.14 2342.17 L2486.63 2343.28 L2512.00 2344.15 L2537.37 2345.01 L2562.74 2345.75 L2588.23 2346.50 L2613.60 2346.99 L2638.97 2347.49 L2664.46 2347.98 L2689.83 2348.35 L2715.20 2348.72 L2740.57 2349.10 L2766.06 2349.34 L2791.43 2349.59 L2816.80 2349.84 L2842.29 2349.96 L2867.66 2350.09 L2893.03 2350.33 L2918.40 2350.46 L2943.89 2350.58 L2969.26 2350.58 L2994.63 2350.70 L3019.99 2350.83 L3045.49 2350.83 L3070.86 2350.95" stroke-linejoin="round" style="fill:none;stroke:#E37E00;stroke-width:5.76"/>
	<path d=" M530.52 2351.45 L555.88 2351.45 L581.38 2351.45 L606.75 2351.45 L632.12 2351.32 L657.48 2351.32 L682.98 2351.20 L708.35 2351.20 L733.71 2350.95 L759.21 2350.58 L784.58 2349.84 L809.94 2348.72 L835.31 2346.62 L860.80 2343.03 L886.17 2336.60 L911.54 2325.34 L936.91 2305.78 L962.40 2272.12 L987.77 2215.32 L1013.14 2122.50 L1038.63 1979.07 L1064.00 1775.37 L1089.37 1519.82 L1114.74 1248.68 L1140.23 1015.15 L1165.60 861.70 L1190.97 799.33 L1216.46 813.93 L1241.83 881.13 L1267.20 978.89 L1292.57 1090.89 L1318.06 1206.60 L1343.43 1319.59 L1368.80 1426.51 L1394.29 1525.64 L1419.66 1616.10 L1445.03 1698.15 L1470.40 1771.91 L1495.89 1838.12 L1521.26 1897.02 L1546.63 1949.62 L1572.00 1996.27 L1597.49 2037.73 L1622.86 2074.36 L1648.23 2106.91 L1673.72 2135.62 L1699.09 2160.99 L1724.46 2183.51 L1749.83 2203.31 L1775.32 2220.76 L1800.69 2236.23 L1826.06 2249.85 L1851.55 2261.97 L1876.92 2272.49 L1902.29 2281.90 L1927.65 2290.19 L1953.15 2297.37 L1978.52 2303.80 L2003.88 2309.49 L2029.38 2314.44 L2054.74 2318.90 L2080.11 2322.74 L2105.48 2326.08 L2130.97 2329.17 L2156.34 2331.77 L2181.71 2334.12 L2207.08 2336.23 L2232.57 2337.96 L2257.94 2339.57 L2283.31 2341.05 L2308.80 2342.29 L2334.17 2343.28 L2359.54 2344.27 L2384.91 2345.14 L2410.40 2345.88 L2435.77 2346.50 L2461.14 2347.12 L2486.63 2347.61 L2512.00 2348.11 L2537.37 2348.48 L2562.74 2348.85 L2588.23 2349.10 L2613.60 2349.47 L2638.97 2349.59 L2664.46 2349.84 L2689.83 2350.09 L2715.20 2350.21 L2740.57 2350.33 L2766.06 2350.46 L2791.43 2350.58 L2816.80 2350.70 L2842.29 2350.83 L2867.66 2350.83 L2893.03 2350.95 L2918.40 2350.95 L2943.89 2351.08 L2969.26 2351.08 L2994.63 2351.08 L3019.99 2351.20 L3045.49 2351.20 L3070.86 2351.20" stroke-linejoin="round" style="fill:none;stroke:#6E8E84;stroke-width:5.76"/>
	<path d=" M530.52 2351.45 L555.88 2351.45 L581.38 2351.45 L606.75 2351.32 L632.12 2351.32 L657.48 2351.32 L682.98 2351.08 L708.35 2350.83 L733.71 2350.33 L759.21 2349.34 L784.58 2347.24 L809.94 2343.40 L835.31 2335.73 L860.80 2321.00 L886.17 2292.79 L911.54 2239.82 L936.91 2143.54 L962.40 1979.69 L987.77 1728.97 L1013.14 1404.61 L1038.63 1072.08 L1064.00 818.14 L1089.37 690.05 L1114.74 677.80 L1140.23 744.50 L1165.60 854.64 L1190.97 983.35 L1216.46 1115.76 L1241.83 1244.10 L1267.20 1364.02 L1292.57 1474.03 L1318.06 1573.65 L1343.43 1663.13 L1368.80 1743.07 L1394.29 1814.36 L1419.66 1877.47 L1445.03 1933.53 L1470.40 1983.03 L1495.89 2026.84 L1521.26 2065.45 L1546.63 2099.61 L1572.00 2129.68 L1597.49 2156.16 L1622.86 2179.55 L1648.23 2200.10 L1673.72 2218.29 L1699.09 2234.25 L1724.46 2248.36 L1749.83 2260.74 L1775.32 2271.63 L1800.69 2281.16 L1826.06 2289.57 L1851.55 2297.00 L1876.92 2303.55 L1902.29 2309.37 L1927.65 2314.44 L1953.15 2318.90 L1978.52 2322.74 L2003.88 2326.20 L2029.38 2329.30 L2054.74 2331.89 L2080.11 2334.25 L2105.48 2336.35 L2130.97 2338.08 L2156.34 2339.69 L2181.71 2341.18 L2207.08 2342.41 L2232.57 2343.53 L2257.94 2344.39 L2283.31 2345.26 L2308.80 2346.00 L2334.17 2346.62 L2359.54 2347.24 L2384.91 2347.73 L2410.40 2348.23 L2435.77 2348.60 L2461.14 2348.85 L2486.63 2349.22 L2512.00 2349.47 L2537.37 2349.71 L2562.74 2349.96 L2588.23 2350.09 L2613.60 2350.21 L2638.97 2350.33 L2664.46 2350.46 L2689.83 2350.58 L2715.20 2350.70 L2740.57 2350.83 L2766.06 2350.83 L2791.43 2350.95 L2816.80 2350.95 L2842.29 2351.08 L2867.66 2351.08 L2893.03 2351.08 L2918.40 2351.20 L2943.89 2351.20 L2969.26 2351.20 L2994.63 2351.20 L3019.99 2351.32 L3045.49 2351.32 L3070.86 2351.32" stroke-linejoin="round" style="fill:none;stroke:#C10534;stroke-width:5.76"/>
	<line x1="467.28" y1="2414.69" x2="467.28" y2="235.38" style="stroke:#000000;stroke-width:5.76"/>
	<line x1="467.28" y1="2351.32" x2="427.19" y2="2351.32" style="stroke:#000000;stroke-width:5.76"/>
	<text x="407.26" y="2379.34" style="font-family:'Helvetica';font-size:79.94px;fill:#000000" text-anchor="end">0</text>
	<line x1="467.28" y1="1838.24" x2="427.19" y2="1838.24" style="stroke:#000000;stroke-width:5.76"/>
	<text x="407.26" y="1866.25" style="font-family:'Helvetica';font-size:79.94px;fill:#000000" text-anchor="end">100,000</text>
	<line x1="467.28" y1="1325.03" x2="427.19" y2="1325.03" style="stroke:#000000;stroke-width:5.76"/>
	<text x="407.26" y="1353.04" style="font-family:'Helvetica';font-size:79.94px;fill:#000000" text-anchor="end">200,000</text>
	<line x1="467.28" y1="811.83" x2="427.19" y2="811.83" style="stroke:#000000;stroke-width:5.76"/>
	<text x="407.26" y="839.84" style="font-family:'Helvetica';font-size:79.94px;fill:#000000" text-anchor="end">300,000</text>
	<line x1="467.28" y1="298.74" x2="427.19" y2="298.74" style="stroke:#000000;stroke-width:5.76"/>
	<text x="407.26" y="326.75" style="font-family:'Helvetica';font-size:79.94px;fill:#000000" text-anchor="end">400,000</text>
	<line x1="467.28" y1="2414.69" x2="3134.34" y2="2414.69" style="stroke:#000000;stroke-width:5.76"/>
	<line x1="530.64" y1="2414.69" x2="530.64" y2="2454.66" style="stroke:#000000;stroke-width:5.76"/>
	<text x="530.64" y="2530.61" style="font-family:'Helvetica';font-size:79.94px;fill:#000000" text-anchor="middle">0</text>
	<line x1="1038.63" y1="2414.69" x2="1038.63" y2="2454.66" style="stroke:#000000;stroke-width:5.76"/>
	<text x="1038.63" y="2530.61" style="font-family:'Helvetica';font-size:79.94px;fill:#000000" text-anchor="middle">20</text>
	<line x1="1546.75" y1="2414.69" x2="1546.75" y2="2454.66" style="stroke:#000000;stroke-width:5.76"/>
	<text x="1546.75" y="2530.61" style="font-family:'Helvetica';font-size:79.94px;fill:#000000" text-anchor="middle">40</text>
	<line x1="2054.74" y1="2414.69" x2="2054.74" y2="2454.66" style="stroke:#000000;stroke-width:5.76"/>
	<text x="2054.74" y="2530.61" style="font-family:'Helvetica';font-size:79.94px;fill:#000000" text-anchor="middle">60</text>
	<line x1="2562.86" y1="2414.69" x2="2562.86" y2="2454.66" style="stroke:#000000;stroke-width:5.76"/>
	<text x="2562.86" y="2530.61" style="font-family:'Helvetica';font-size:79.94px;fill:#000000" text-anchor="middle">80</text>
	<line x1="3070.98" y1="2414.69" x2="3070.98" y2="2454.66" style="stroke:#000000;stroke-width:5.76"/>
	<text x="3070.98" y="2530.61" style="font-family:'Helvetica';font-size:79.94px;fill:#000000" text-anchor="middle">100</text>
	<text x="1800.81" y="2620.57" style="font-family:'Helvetica';font-size:79.94px;fill:#000000" text-anchor="middle">Time, days</text>
	<rect x="3168.87" y="1802.85" width="655.63" height="577.31" style="fill:#FFFFFF"/>
	<rect x="3171.75" y="1805.73" width="649.87" height="571.55" style="fill:none;stroke:#EAF2F3;stroke-width:5.76"/>
	<line x1="3206.24" y1="1841.58" x2="3354.86" y2="1841.58" style="stroke:#1A476F;stroke-width:5.76"/>
	<line x1="3206.24" y1="1941.57" x2="3354.86" y2="1941.57" style="stroke:#90353B;stroke-width:5.76"/>
	<line x1="3206.24" y1="2041.57" x2="3354.86" y2="2041.57" style="stroke:#55752F;stroke-width:5.76"/>
	<line x1="3206.24" y1="2141.56" x2="3354.86" y2="2141.56" style="stroke:#E37E00;stroke-width:5.76"/>
	<line x1="3206.24" y1="2241.55" x2="3354.86" y2="2241.55" style="stroke:#6E8E84;stroke-width:5.76"/>
	<line x1="3206.24" y1="2341.55" x2="3354.86" y2="2341.55" style="stroke:#C10534;stroke-width:5.76"/>
	<text x="3406.47" y="1862.62" style="font-family:'Helvetica';font-size:60.02px;fill:#000000">Infected (β=0.30)</text>
	<text x="3406.47" y="1962.61" style="font-family:'Helvetica';font-size:60.02px;fill:#000000">Infected (β=0.40)</text>
	<text x="3406.47" y="2062.61" style="font-family:'Helvetica';font-size:60.02px;fill:#000000">Infected (β=0.50)</text>
	<text x="3406.47" y="2162.60" style="font-family:'Helvetica';font-size:60.02px;fill:#000000">Infected (β=0.60)</text>
	<text x="3406.47" y="2262.59" style="font-family:'Helvetica';font-size:60.02px;fill:#000000">Infected (β=0.70)</text>
	<text x="3406.47" y="2362.59" style="font-family:'Helvetica';font-size:60.02px;fill:#000000">Infected (β=0.80)</text>
	<text x="484.48" y="2737.89" style="font-family:'Helvetica';font-size:79.94px;fill:#808080">Note: Higher values of β correspond to higher peak values for number of infected.</text>
	<text x="1800.81" y="187.99" style="font-family:'Helvetica';font-size:99.99px;fill:#1E2D53" text-anchor="middle">SIR model (γ=0.13)</text>
</svg>
