<?xml version="1.0" encoding="UTF-8" standalone="no"?>
<!-- This is a Stata 16.0 generated SVG file (http://www.stata.com) -->

<svg version="1.1" width="5.50in" height="4.00in" viewBox="0 0 3960 2880" xmlns="http://www.w3.org/2000/svg" xmlns:xlink="http://www.w3.org/1999/xlink">
	<desc>Stata Graph - Graph</desc>
	<rect x="0" y="0" width="3960" height="2880" style="fill:#F0F0F0;stroke:none"/>
	<rect x="0.00" y="0.00" width="3959.88" height="2880.00" style="fill:#F0F0F0"/>
	<rect x="2.88" y="2.88" width="3954.12" height="2874.24" style="fill:none;stroke:#F0F0F0;stroke-width:5.76"/>
	<rect x="318.29" y="231.67" width="3540.74" height="2330.04" style="fill:#FFFFFF"/>
	<rect x="320.44" y="233.83" width="3536.42" height="2325.72" style="fill:none;stroke:#FFFFFF;stroke-width:4.32"/>
	<line x1="318.29" y1="2514.18" x2="3859.02" y2="2514.18" style="stroke:#E8E8E8;stroke-width:6.48"/>
	<line x1="318.29" y1="1774.14" x2="3859.02" y2="1774.14" style="stroke:#E8E8E8;stroke-width:6.48"/>
	<line x1="318.29" y1="1034.09" x2="3859.02" y2="1034.09" style="stroke:#E8E8E8;stroke-width:6.48"/>
	<line x1="318.29" y1="294.04" x2="3859.02" y2="294.04" style="stroke:#E8E8E8;stroke-width:6.48"/>
	<line x1="365.81" y1="2561.71" x2="365.81" y2="231.67" style="stroke:#E8E8E8;stroke-width:6.48"/>
	<line x1="1054.97" y1="2561.71" x2="1054.97" y2="231.67" style="stroke:#E8E8E8;stroke-width:6.48"/>
	<line x1="1744.13" y1="2561.71" x2="1744.13" y2="231.67" style="stroke:#E8E8E8;stroke-width:6.48"/>
	<line x1="2433.30" y1="2561.71" x2="2433.30" y2="231.67" style="stroke:#E8E8E8;stroke-width:6.48"/>
	<line x1="3122.46" y1="2561.71" x2="3122.46" y2="231.67" style="stroke:#E8E8E8;stroke-width:6.48"/>
	<line x1="3811.50" y1="2561.71" x2="3811.50" y2="231.67" style="stroke:#E8E8E8;stroke-width:6.48"/>
	<path d=" M365.68 279.31 L400.21 279.31 L434.61 279.31 L469.14 279.31 L503.54 279.31 L538.07 279.31 L572.47 279.31 L606.99 279.31 L641.40 279.31 L675.80 279.31 L710.33 279.31 L744.73 279.31 L779.25 279.31 L813.66 279.44 L848.18 279.44 L882.59 279.44 L917.11 279.44 L951.51 279.44 L985.92 279.56 L1020.44 279.56 L1054.85 279.56 L1089.37 279.68 L1123.77 279.68 L1158.30 279.81 L1192.70 279.93 L1227.23 280.06 L1261.63 280.18 L1296.16 280.30 L1330.56 280.43 L1364.96 280.67 L1399.49 280.92 L1433.89 281.29 L1468.42 281.54 L1502.82 282.04 L1537.35 282.53 L1571.75 283.03 L1606.28 283.77 L1640.68 284.51 L1675.08 285.50 L1709.61 286.61 L1744.01 287.98 L1778.54 289.46 L1812.94 291.32 L1847.46 293.54 L1881.87 296.02 L1916.39 298.99 L1950.80 302.45 L1985.20 306.66 L2019.72 311.49 L2054.13 317.06 L2088.65 323.62 L2123.05 331.29 L2157.58 340.20 L2191.98 350.59 L2226.51 362.60 L2260.91 376.34 L2295.32 392.18 L2329.84 410.37 L2364.24 430.91 L2398.77 454.18 L2433.17 480.29 L2467.70 509.37 L2502.10 541.42 L2536.63 576.57 L2571.03 614.81 L2605.43 655.65 L2639.96 699.21 L2674.36 744.75 L2708.89 792.02 L2743.29 840.41 L2777.82 889.54 L2812.22 938.55 L2846.74 986.94 L2881.15 1034.33 L2915.55 1080.00 L2950.08 1123.81 L2984.48 1165.39 L3019.01 1204.50 L3053.41 1241.00 L3087.93 1274.79 L3122.34 1305.97 L3156.86 1334.44 L3191.26 1360.43 L3225.67 1384.06 L3260.19 1405.47 L3294.60 1424.78 L3329.12 1442.10 L3363.53 1457.57 L3398.05 1471.43 L3432.45 1483.93 L3466.98 1494.95 L3501.38 1504.85 L3535.78 1513.63 L3570.31 1521.43 L3604.71 1528.36 L3639.24 1534.55 L3673.64 1539.99 L3708.17 1544.82 L3742.57 1549.15 L3777.10 1552.99 L3811.50 1556.33" stroke-linejoin="round" style="fill:none;stroke:#000000;stroke-width:6.48"/>
	<line x1="365.68" y1="2514.18" x2="400.21" y2="2514.18" style="stroke:#000000;stroke-width:6.48"/>
	<line x1="400.21" y1="2514.18" x2="423.23" y2="2514.18" style="stroke:#000000;stroke-width:6.48"/>
	<line x1="452.06" y1="2514.18" x2="469.14" y2="2514.18" style="stroke:#000000;stroke-width:6.48"/>
	<line x1="469.14" y1="2514.18" x2="503.54" y2="2514.18" style="stroke:#000000;stroke-width:6.48"/>
	<line x1="503.54" y1="2514.18" x2="509.60" y2="2514.18" style="stroke:#000000;stroke-width:6.48"/>
	<line x1="538.44" y1="2514.18" x2="572.47" y2="2514.18" style="stroke:#000000;stroke-width:6.48"/>
	<line x1="572.47" y1="2514.18" x2="595.98" y2="2514.18" style="stroke:#000000;stroke-width:6.48"/>
	<line x1="624.81" y1="2514.18" x2="641.40" y2="2514.18" style="stroke:#000000;stroke-width:6.48"/>
	<line x1="641.40" y1="2514.18" x2="675.80" y2="2514.18" style="stroke:#000000;stroke-width:6.48"/>
	<line x1="675.80" y1="2514.18" x2="682.36" y2="2514.18" style="stroke:#000000;stroke-width:6.48"/>
	<line x1="711.19" y1="2514.18" x2="744.73" y2="2514.18" style="stroke:#000000;stroke-width:6.48"/>
	<line x1="744.73" y1="2514.18" x2="768.74" y2="2514.18" style="stroke:#000000;stroke-width:6.48"/>
	<line x1="797.57" y1="2514.18" x2="813.66" y2="2514.18" style="stroke:#000000;stroke-width:6.48"/>
	<line x1="813.66" y1="2514.18" x2="848.18" y2="2514.18" style="stroke:#000000;stroke-width:6.48"/>
	<line x1="848.18" y1="2514.18" x2="855.24" y2="2514.18" style="stroke:#000000;stroke-width:6.48"/>
	<line x1="883.95" y1="2514.18" x2="917.11" y2="2514.18" style="stroke:#000000;stroke-width:6.48"/>
	<line x1="917.11" y1="2514.18" x2="941.61" y2="2514.18" style="stroke:#000000;stroke-width:6.48"/>
	<line x1="970.32" y1="2514.18" x2="985.92" y2="2514.18" style="stroke:#000000;stroke-width:6.48"/>
	<line x1="985.92" y1="2514.18" x2="1020.44" y2="2514.18" style="stroke:#000000;stroke-width:6.48"/>
	<line x1="1020.44" y1="2514.18" x2="1027.99" y2="2514.18" style="stroke:#000000;stroke-width:6.48"/>
	<line x1="1056.83" y1="2514.18" x2="1089.37" y2="2514.18" style="stroke:#000000;stroke-width:6.48"/>
	<line x1="1089.37" y1="2514.18" x2="1114.37" y2="2514.18" style="stroke:#000000;stroke-width:6.48"/>
	<line x1="1143.20" y1="2514.06" x2="1158.30" y2="2514.06" style="stroke:#000000;stroke-width:6.48"/>
	<line x1="1158.30" y1="2514.06" x2="1192.70" y2="2514.06" style="stroke:#000000;stroke-width:6.48"/>
	<line x1="1192.70" y1="2514.06" x2="1200.75" y2="2514.06" style="stroke:#000000;stroke-width:6.48"/>
	<line x1="1229.58" y1="2514.06" x2="1261.63" y2="2513.94" style="stroke:#000000;stroke-width:6.48"/>
	<line x1="1261.63" y1="2513.94" x2="1287.12" y2="2513.94" style="stroke:#000000;stroke-width:6.48"/>
	<line x1="1315.96" y1="2513.94" x2="1330.56" y2="2513.81" style="stroke:#000000;stroke-width:6.48"/>
	<line x1="1330.56" y1="2513.81" x2="1364.96" y2="2513.81" style="stroke:#000000;stroke-width:6.48"/>
	<line x1="1364.96" y1="2513.81" x2="1373.50" y2="2513.81" style="stroke:#000000;stroke-width:6.48"/>
	<line x1="1402.34" y1="2513.69" x2="1433.89" y2="2513.56" style="stroke:#000000;stroke-width:6.48"/>
	<line x1="1433.89" y1="2513.56" x2="1459.88" y2="2513.44" style="stroke:#000000;stroke-width:6.48"/>
	<line x1="1488.71" y1="2513.32" x2="1502.82" y2="2513.32" style="stroke:#000000;stroke-width:6.48"/>
	<line x1="1502.82" y1="2513.32" x2="1537.35" y2="2513.19" style="stroke:#000000;stroke-width:6.48"/>
	<line x1="1537.35" y1="2513.19" x2="1546.26" y2="2513.07" style="stroke:#000000;stroke-width:6.48"/>
	<line x1="1575.09" y1="2512.95" x2="1606.28" y2="2512.82" style="stroke:#000000;stroke-width:6.48"/>
	<line x1="1606.28" y1="2512.82" x2="1632.63" y2="2512.45" style="stroke:#000000;stroke-width:6.48"/>
	<line x1="1661.47" y1="2512.33" x2="1675.08" y2="2512.20" style="stroke:#000000;stroke-width:6.48"/>
	<line x1="1675.08" y1="2512.20" x2="1709.61" y2="2511.83" style="stroke:#000000;stroke-width:6.48"/>
	<line x1="1709.61" y1="2511.83" x2="1719.01" y2="2511.71" style="stroke:#000000;stroke-width:6.48"/>
	<line x1="1747.85" y1="2511.34" x2="1778.54" y2="2510.84" style="stroke:#000000;stroke-width:6.48"/>
	<line x1="1778.54" y1="2510.84" x2="1805.51" y2="2510.35" style="stroke:#000000;stroke-width:6.48"/>
	<line x1="1834.22" y1="2509.85" x2="1847.46" y2="2509.60" style="stroke:#000000;stroke-width:6.48"/>
	<line x1="1847.46" y1="2509.60" x2="1881.87" y2="2508.74" style="stroke:#000000;stroke-width:6.48"/>
	<line x1="1881.87" y1="2508.74" x2="1891.89" y2="2508.37" style="stroke:#000000;stroke-width:6.48"/>
	<line x1="1920.60" y1="2507.62" x2="1950.80" y2="2506.63" style="stroke:#000000;stroke-width:6.48"/>
	<line x1="1950.80" y1="2506.63" x2="1978.27" y2="2505.52" style="stroke:#000000;stroke-width:6.48"/>
	<line x1="2006.98" y1="2504.28" x2="2019.72" y2="2503.66" style="stroke:#000000;stroke-width:6.48"/>
	<line x1="2019.72" y1="2503.66" x2="2054.13" y2="2501.81" style="stroke:#000000;stroke-width:6.48"/>
	<line x1="2054.13" y1="2501.81" x2="2064.52" y2="2501.19" style="stroke:#000000;stroke-width:6.48"/>
	<line x1="2093.23" y1="2499.46" x2="2123.05" y2="2497.35" style="stroke:#000000;stroke-width:6.48"/>
	<line x1="2123.05" y1="2497.35" x2="2150.65" y2="2495.13" style="stroke:#000000;stroke-width:6.48"/>
	<line x1="2179.36" y1="2492.40" x2="2191.98" y2="2491.29" style="stroke:#000000;stroke-width:6.48"/>
	<line x1="2191.98" y1="2491.29" x2="2226.51" y2="2487.58" style="stroke:#000000;stroke-width:6.48"/>
	<line x1="2226.51" y1="2487.58" x2="2236.66" y2="2486.34" style="stroke:#000000;stroke-width:6.48"/>
	<line x1="2265.24" y1="2482.75" x2="2295.32" y2="2478.54" style="stroke:#000000;stroke-width:6.48"/>
	<line x1="2295.32" y1="2478.54" x2="2322.17" y2="2474.46" style="stroke:#000000;stroke-width:6.48"/>
	<line x1="2350.63" y1="2469.63" x2="2364.24" y2="2467.28" style="stroke:#000000;stroke-width:6.48"/>
	<line x1="2364.24" y1="2467.28" x2="2398.77" y2="2460.72" style="stroke:#000000;stroke-width:6.48"/>
	<line x1="2398.77" y1="2460.72" x2="2407.18" y2="2458.99" style="stroke:#000000;stroke-width:6.48"/>
	<line x1="2435.40" y1="2453.17" x2="2467.70" y2="2446.00" style="stroke:#000000;stroke-width:6.48"/>
	<line x1="2467.70" y1="2446.00" x2="2491.58" y2="2440.43" style="stroke:#000000;stroke-width:6.48"/>
	<line x1="2519.55" y1="2433.74" x2="2536.63" y2="2429.66" style="stroke:#000000;stroke-width:6.48"/>
	<line x1="2536.63" y1="2429.66" x2="2571.03" y2="2421.12" style="stroke:#000000;stroke-width:6.48"/>
	<line x1="2571.03" y1="2421.12" x2="2575.49" y2="2420.01" style="stroke:#000000;stroke-width:6.48"/>
	<line x1="2603.45" y1="2413.08" x2="2605.43" y2="2412.58" style="stroke:#000000;stroke-width:6.48"/>
	<line x1="2605.43" y1="2412.58" x2="2639.96" y2="2404.41" style="stroke:#000000;stroke-width:6.48"/>
	<line x1="2639.96" y1="2404.41" x2="2659.51" y2="2400.08" style="stroke:#000000;stroke-width:6.48"/>
	<line x1="2687.73" y1="2394.02" x2="2708.89" y2="2389.81" style="stroke:#000000;stroke-width:6.48"/>
	<line x1="2708.89" y1="2389.81" x2="2743.29" y2="2383.87" style="stroke:#000000;stroke-width:6.48"/>
	<line x1="2743.29" y1="2383.87" x2="2744.40" y2="2383.75" style="stroke:#000000;stroke-width:6.48"/>
	<line x1="2772.99" y1="2379.91" x2="2777.82" y2="2379.17" style="stroke:#000000;stroke-width:6.48"/>
	<line x1="2777.82" y1="2379.17" x2="2812.22" y2="2375.70" style="stroke:#000000;stroke-width:6.48"/>
	<line x1="2812.22" y1="2375.70" x2="2830.29" y2="2374.71" style="stroke:#000000;stroke-width:6.48"/>
	<line x1="2859.12" y1="2373.72" x2="2881.15" y2="2373.48" style="stroke:#000000;stroke-width:6.48"/>
	<line x1="2881.15" y1="2373.48" x2="2915.55" y2="2374.47" style="stroke:#000000;stroke-width:6.48"/>
	<line x1="2915.55" y1="2374.47" x2="2916.66" y2="2374.47" style="stroke:#000000;stroke-width:6.48"/>
	<line x1="2945.37" y1="2376.57" x2="2950.08" y2="2376.82" style="stroke:#000000;stroke-width:6.48"/>
	<line x1="2950.08" y1="2376.82" x2="2984.48" y2="2380.53" style="stroke:#000000;stroke-width:6.48"/>
	<line x1="2984.48" y1="2380.53" x2="3002.55" y2="2383.00" style="stroke:#000000;stroke-width:6.48"/>
	<line x1="3031.13" y1="2387.21" x2="3053.41" y2="2390.80" style="stroke:#000000;stroke-width:6.48"/>
	<line x1="3053.41" y1="2390.80" x2="3087.81" y2="2397.11" style="stroke:#000000;stroke-width:6.48"/>
	<line x1="3116.15" y1="2402.68" x2="3122.34" y2="2403.92" style="stroke:#000000;stroke-width:6.48"/>
	<line x1="3122.34" y1="2403.92" x2="3156.86" y2="2410.97" style="stroke:#000000;stroke-width:6.48"/>
	<line x1="3156.86" y1="2410.97" x2="3172.45" y2="2414.19" style="stroke:#000000;stroke-width:6.48"/>
	<line x1="3200.67" y1="2420.13" x2="3225.67" y2="2425.45" style="stroke:#000000;stroke-width:6.48"/>
	<line x1="3225.67" y1="2425.45" x2="3256.98" y2="2431.89" style="stroke:#000000;stroke-width:6.48"/>
	<line x1="3285.32" y1="2437.46" x2="3294.60" y2="2439.31" style="stroke:#000000;stroke-width:6.48"/>
	<line x1="3294.60" y1="2439.31" x2="3329.12" y2="2445.87" style="stroke:#000000;stroke-width:6.48"/>
	<line x1="3329.12" y1="2445.87" x2="3341.87" y2="2448.22" style="stroke:#000000;stroke-width:6.48"/>
	<line x1="3370.21" y1="2453.17" x2="3398.05" y2="2457.88" style="stroke:#000000;stroke-width:6.48"/>
	<line x1="3398.05" y1="2457.88" x2="3427.01" y2="2462.45" style="stroke:#000000;stroke-width:6.48"/>
	<line x1="3455.59" y1="2466.66" x2="3466.98" y2="2468.39" style="stroke:#000000;stroke-width:6.48"/>
	<line x1="3466.98" y1="2468.39" x2="3501.38" y2="2472.97" style="stroke:#000000;stroke-width:6.48"/>
	<line x1="3501.38" y1="2472.97" x2="3512.64" y2="2474.33" style="stroke:#000000;stroke-width:6.48"/>
	<line x1="3541.23" y1="2477.92" x2="3570.31" y2="2481.14" style="stroke:#000000;stroke-width:6.48"/>
	<line x1="3570.31" y1="2481.14" x2="3598.53" y2="2483.99" style="stroke:#000000;stroke-width:6.48"/>
	<line x1="3627.36" y1="2486.71" x2="3639.24" y2="2487.82" style="stroke:#000000;stroke-width:6.48"/>
	<line x1="3639.24" y1="2487.82" x2="3673.64" y2="2490.67" style="stroke:#000000;stroke-width:6.48"/>
	<line x1="3673.64" y1="2490.67" x2="3684.66" y2="2491.54" style="stroke:#000000;stroke-width:6.48"/>
	<line x1="3713.37" y1="2493.64" x2="3742.57" y2="2495.62" style="stroke:#000000;stroke-width:6.48"/>
	<line x1="3742.57" y1="2495.62" x2="3770.79" y2="2497.23" style="stroke:#000000;stroke-width:6.48"/>
	<line x1="3799.62" y1="2498.84" x2="3811.50" y2="2499.46" style="stroke:#000000;stroke-width:6.48"/>
	<path d="" stroke-linejoin="round" style="fill:none;stroke:#000000;stroke-width:6.48"/>
	<line x1="365.68" y1="2514.31" x2="380.04" y2="2514.31" style="stroke:#000000;stroke-width:6.48"/>
	<line x1="400.21" y1="2514.31" x2="400.21" y2="2514.31" style="stroke:#000000;stroke-width:6.48"/>
	<line x1="400.21" y1="2514.31" x2="414.56" y2="2514.31" style="stroke:#000000;stroke-width:6.48"/>
	<line x1="434.73" y1="2514.18" x2="449.09" y2="2514.18" style="stroke:#000000;stroke-width:6.48"/>
	<line x1="469.26" y1="2514.18" x2="483.62" y2="2514.18" style="stroke:#000000;stroke-width:6.48"/>
	<line x1="503.79" y1="2514.18" x2="518.26" y2="2514.18" style="stroke:#000000;stroke-width:6.48"/>
	<line x1="538.44" y1="2514.18" x2="552.79" y2="2514.18" style="stroke:#000000;stroke-width:6.48"/>
	<line x1="572.96" y1="2514.18" x2="587.32" y2="2514.18" style="stroke:#000000;stroke-width:6.48"/>
	<line x1="607.49" y1="2514.18" x2="621.84" y2="2514.18" style="stroke:#000000;stroke-width:6.48"/>
	<line x1="642.01" y1="2514.18" x2="656.37" y2="2514.18" style="stroke:#000000;stroke-width:6.48"/>
	<line x1="676.54" y1="2514.18" x2="690.90" y2="2514.18" style="stroke:#000000;stroke-width:6.48"/>
	<line x1="711.07" y1="2514.18" x2="725.42" y2="2514.18" style="stroke:#000000;stroke-width:6.48"/>
	<line x1="745.59" y1="2514.18" x2="760.07" y2="2514.18" style="stroke:#000000;stroke-width:6.48"/>
	<line x1="780.12" y1="2514.18" x2="794.60" y2="2514.18" style="stroke:#000000;stroke-width:6.48"/>
	<line x1="814.77" y1="2514.18" x2="829.13" y2="2514.18" style="stroke:#000000;stroke-width:6.48"/>
	<line x1="849.30" y1="2514.18" x2="863.65" y2="2514.18" style="stroke:#000000;stroke-width:6.48"/>
	<line x1="883.82" y1="2514.18" x2="898.18" y2="2514.18" style="stroke:#000000;stroke-width:6.48"/>
	<line x1="918.35" y1="2514.18" x2="932.70" y2="2514.18" style="stroke:#000000;stroke-width:6.48"/>
	<line x1="952.88" y1="2514.18" x2="967.23" y2="2514.18" style="stroke:#000000;stroke-width:6.48"/>
	<line x1="987.40" y1="2514.06" x2="1001.88" y2="2514.06" style="stroke:#000000;stroke-width:6.48"/>
	<line x1="1021.93" y1="2514.06" x2="1036.41" y2="2514.06" style="stroke:#000000;stroke-width:6.48"/>
	<line x1="1056.58" y1="2514.06" x2="1070.93" y2="2514.06" style="stroke:#000000;stroke-width:6.48"/>
	<line x1="1091.10" y1="2514.06" x2="1105.46" y2="2514.06" style="stroke:#000000;stroke-width:6.48"/>
	<line x1="1125.63" y1="2513.94" x2="1139.98" y2="2513.94" style="stroke:#000000;stroke-width:6.48"/>
	<line x1="1160.16" y1="2513.94" x2="1174.51" y2="2513.94" style="stroke:#000000;stroke-width:6.48"/>
	<line x1="1194.68" y1="2513.81" x2="1209.04" y2="2513.81" style="stroke:#000000;stroke-width:6.48"/>
	<line x1="1229.21" y1="2513.81" x2="1243.56" y2="2513.81" style="stroke:#000000;stroke-width:6.48"/>
	<line x1="1263.73" y1="2513.69" x2="1278.21" y2="2513.56" style="stroke:#000000;stroke-width:6.48"/>
	<line x1="1298.38" y1="2513.56" x2="1312.74" y2="2513.44" style="stroke:#000000;stroke-width:6.48"/>
	<line x1="1332.91" y1="2513.44" x2="1347.27" y2="2513.32" style="stroke:#000000;stroke-width:6.48"/>
	<line x1="1367.44" y1="2513.32" x2="1381.79" y2="2513.19" style="stroke:#000000;stroke-width:6.48"/>
	<line x1="1401.96" y1="2513.19" x2="1416.32" y2="2513.07" style="stroke:#000000;stroke-width:6.48"/>
	<line x1="1436.49" y1="2512.95" x2="1450.85" y2="2512.82" style="stroke:#000000;stroke-width:6.48"/>
	<line x1="1471.02" y1="2512.70" x2="1485.37" y2="2512.57" style="stroke:#000000;stroke-width:6.48"/>
	<line x1="1505.54" y1="2512.45" x2="1520.02" y2="2512.20" style="stroke:#000000;stroke-width:6.48"/>
	<line x1="1540.19" y1="2512.08" x2="1554.55" y2="2511.83" style="stroke:#000000;stroke-width:6.48"/>
	<line x1="1574.72" y1="2511.71" x2="1589.07" y2="2511.58" style="stroke:#000000;stroke-width:6.48"/>
	<line x1="1609.24" y1="2511.34" x2="1623.60" y2="2511.09" style="stroke:#000000;stroke-width:6.48"/>
	<line x1="1643.77" y1="2510.72" x2="1658.13" y2="2510.47" style="stroke:#000000;stroke-width:6.48"/>
	<line x1="1678.30" y1="2510.10" x2="1692.65" y2="2509.73" style="stroke:#000000;stroke-width:6.48"/>
	<line x1="1712.82" y1="2509.23" x2="1727.18" y2="2508.86" style="stroke:#000000;stroke-width:6.48"/>
	<line x1="1747.35" y1="2508.37" x2="1761.83" y2="2507.87" style="stroke:#000000;stroke-width:6.48"/>
	<line x1="1782.00" y1="2507.25" x2="1796.36" y2="2506.88" style="stroke:#000000;stroke-width:6.48"/>
	<line x1="1816.53" y1="2506.14" x2="1830.88" y2="2505.52" style="stroke:#000000;stroke-width:6.48"/>
	<line x1="1851.05" y1="2504.53" x2="1865.41" y2="2503.79" style="stroke:#000000;stroke-width:6.48"/>
	<line x1="1885.58" y1="2502.80" x2="1899.93" y2="2502.06" style="stroke:#000000;stroke-width:6.48"/>
	<line x1="1920.11" y1="2500.82" x2="1934.46" y2="2499.83" style="stroke:#000000;stroke-width:6.48"/>
	<line x1="1954.63" y1="2498.47" x2="1968.86" y2="2497.23" style="stroke:#000000;stroke-width:6.48"/>
	<line x1="1989.03" y1="2495.50" x2="2003.39" y2="2494.14" style="stroke:#000000;stroke-width:6.48"/>
	<line x1="2023.44" y1="2492.16" x2="2037.79" y2="2490.67" style="stroke:#000000;stroke-width:6.48"/>
	<line x1="2057.72" y1="2488.32" x2="2071.95" y2="2486.46" style="stroke:#000000;stroke-width:6.48"/>
	<line x1="2091.99" y1="2483.86" x2="2106.22" y2="2481.76" style="stroke:#000000;stroke-width:6.48"/>
	<line x1="2126.15" y1="2478.67" x2="2140.26" y2="2476.07" style="stroke:#000000;stroke-width:6.48"/>
	<line x1="2160.06" y1="2472.48" x2="2174.16" y2="2469.63" style="stroke:#000000;stroke-width:6.48"/>
	<line x1="2193.84" y1="2465.42" x2="2207.95" y2="2462.08" style="stroke:#000000;stroke-width:6.48"/>
	<line x1="2227.50" y1="2457.26" x2="2241.36" y2="2453.42" style="stroke:#000000;stroke-width:6.48"/>
	<line x1="2260.79" y1="2448.22" x2="2260.91" y2="2448.10" style="stroke:#000000;stroke-width:6.48"/>
	<line x1="2260.91" y1="2448.10" x2="2274.53" y2="2443.77" style="stroke:#000000;stroke-width:6.48"/>
	<line x1="2293.58" y1="2437.46" x2="2295.32" y2="2436.96" style="stroke:#000000;stroke-width:6.48"/>
	<line x1="2295.32" y1="2436.96" x2="2307.20" y2="2432.51" style="stroke:#000000;stroke-width:6.48"/>
	<line x1="2326.13" y1="2425.58" x2="2329.84" y2="2424.21" style="stroke:#000000;stroke-width:6.48"/>
	<line x1="2329.84" y1="2424.21" x2="2339.37" y2="2420.13" style="stroke:#000000;stroke-width:6.48"/>
	<line x1="2357.93" y1="2412.33" x2="2364.24" y2="2409.61" style="stroke:#000000;stroke-width:6.48"/>
	<line x1="2364.24" y1="2409.61" x2="2371.05" y2="2406.27" style="stroke:#000000;stroke-width:6.48"/>
	<line x1="2389.24" y1="2397.48" x2="2398.77" y2="2392.90" style="stroke:#000000;stroke-width:6.48"/>
	<line x1="2398.77" y1="2392.90" x2="2402.11" y2="2391.05" style="stroke:#000000;stroke-width:6.48"/>
	<line x1="2419.68" y1="2381.27" x2="2432.31" y2="2374.34" style="stroke:#000000;stroke-width:6.48"/>
	<line x1="2449.51" y1="2363.70" x2="2461.64" y2="2356.15" style="stroke:#000000;stroke-width:6.48"/>
	<line x1="2478.47" y1="2345.01" x2="2490.22" y2="2336.72" style="stroke:#000000;stroke-width:6.48"/>
	<line x1="2506.56" y1="2324.96" x2="2517.94" y2="2316.05" style="stroke:#000000;stroke-width:6.48"/>
	<line x1="2533.91" y1="2303.68" x2="2536.63" y2="2301.57" style="stroke:#000000;stroke-width:6.48"/>
	<line x1="2536.63" y1="2301.57" x2="2544.92" y2="2294.40" style="stroke:#000000;stroke-width:6.48"/>
	<line x1="2560.14" y1="2281.28" x2="2571.03" y2="2271.87" style="stroke:#000000;stroke-width:6.48"/>
	<line x1="2585.76" y1="2258.01" x2="2596.15" y2="2248.11" style="stroke:#000000;stroke-width:6.48"/>
	<line x1="2610.63" y1="2234.13" x2="2620.65" y2="2223.86" style="stroke:#000000;stroke-width:6.48"/>
	<line x1="2634.76" y1="2209.50" x2="2639.96" y2="2204.18" style="stroke:#000000;stroke-width:6.48"/>
	<line x1="2639.96" y1="2204.18" x2="2644.66" y2="2198.98" style="stroke:#000000;stroke-width:6.48"/>
	<line x1="2658.15" y1="2184.13" x2="2667.93" y2="2173.49" style="stroke:#000000;stroke-width:6.48"/>
	<line x1="2681.17" y1="2158.39" x2="2690.57" y2="2147.38" style="stroke:#000000;stroke-width:6.48"/>
	<line x1="2703.69" y1="2132.03" x2="2708.89" y2="2125.97" style="stroke:#000000;stroke-width:6.48"/>
	<line x1="2708.89" y1="2125.97" x2="2712.85" y2="2121.02" style="stroke:#000000;stroke-width:6.48"/>
	<line x1="2725.47" y1="2105.42" x2="2734.63" y2="2094.16" style="stroke:#000000;stroke-width:6.48"/>
	<line x1="2747.13" y1="2078.45" x2="2756.04" y2="2067.18" style="stroke:#000000;stroke-width:6.48"/>
	<line x1="2768.41" y1="2051.22" x2="2777.20" y2="2039.96" style="stroke:#000000;stroke-width:6.48"/>
	<line x1="2789.45" y1="2023.87" x2="2798.11" y2="2012.36" style="stroke:#000000;stroke-width:6.48"/>
	<line x1="2810.24" y1="1996.27" x2="2812.22" y2="1993.55" style="stroke:#000000;stroke-width:6.48"/>
	<line x1="2812.22" y1="1993.55" x2="2818.78" y2="1984.76" style="stroke:#000000;stroke-width:6.48"/>
	<line x1="2830.78" y1="1968.55" x2="2839.32" y2="1957.04" style="stroke:#000000;stroke-width:6.48"/>
	<line x1="2851.32" y1="1940.83" x2="2859.86" y2="1929.20" style="stroke:#000000;stroke-width:6.48"/>
	<line x1="2871.74" y1="1912.99" x2="2880.28" y2="1901.35" style="stroke:#000000;stroke-width:6.48"/>
	<line x1="2892.28" y1="1885.14" x2="2900.82" y2="1873.51" style="stroke:#000000;stroke-width:6.48"/>
	<line x1="2912.70" y1="1857.30" x2="2915.55" y2="1853.34" style="stroke:#000000;stroke-width:6.48"/>
	<line x1="2915.55" y1="1853.34" x2="2921.24" y2="1845.67" style="stroke:#000000;stroke-width:6.48"/>
	<line x1="2933.37" y1="1829.58" x2="2941.91" y2="1818.07" style="stroke:#000000;stroke-width:6.48"/>
	<line x1="2954.04" y1="1801.86" x2="2962.70" y2="1790.47" style="stroke:#000000;stroke-width:6.48"/>
	<line x1="2974.95" y1="1774.38" x2="2983.74" y2="1763.00" style="stroke:#000000;stroke-width:6.48"/>
	<line x1="2996.24" y1="1747.03" x2="3005.14" y2="1735.77" style="stroke:#000000;stroke-width:6.48"/>
	<line x1="3017.52" y1="1719.93" x2="3019.01" y2="1718.07" style="stroke:#000000;stroke-width:6.48"/>
	<line x1="3019.01" y1="1718.07" x2="3026.55" y2="1708.79" style="stroke:#000000;stroke-width:6.48"/>
	<line x1="3039.42" y1="1693.20" x2="3048.46" y2="1682.06" style="stroke:#000000;stroke-width:6.48"/>
	<line x1="3061.45" y1="1666.59" x2="3070.86" y2="1655.70" style="stroke:#000000;stroke-width:6.48"/>
	<line x1="3083.97" y1="1640.48" x2="3087.93" y2="1635.90" style="stroke:#000000;stroke-width:6.48"/>
	<line x1="3087.93" y1="1635.90" x2="3093.50" y2="1629.71" style="stroke:#000000;stroke-width:6.48"/>
	<line x1="3107.11" y1="1614.74" x2="3116.64" y2="1604.10" style="stroke:#000000;stroke-width:6.48"/>
	<line x1="3130.50" y1="1589.37" x2="3140.53" y2="1579.10" style="stroke:#000000;stroke-width:6.48"/>
	<line x1="3154.51" y1="1564.62" x2="3156.86" y2="1562.27" style="stroke:#000000;stroke-width:6.48"/>
	<line x1="3156.86" y1="1562.27" x2="3164.78" y2="1554.60" style="stroke:#000000;stroke-width:6.48"/>
	<line x1="3179.39" y1="1540.61" x2="3189.66" y2="1530.59" style="stroke:#000000;stroke-width:6.48"/>
	<line x1="3204.63" y1="1517.10" x2="3215.40" y2="1507.45" style="stroke:#000000;stroke-width:6.48"/>
	<line x1="3230.62" y1="1494.20" x2="3241.63" y2="1485.17" style="stroke:#000000;stroke-width:6.48"/>
	<line x1="3257.22" y1="1472.30" x2="3260.19" y2="1469.82" style="stroke:#000000;stroke-width:6.48"/>
	<line x1="3260.19" y1="1469.82" x2="3268.61" y2="1463.39" style="stroke:#000000;stroke-width:6.48"/>
	<line x1="3284.70" y1="1451.26" x2="3294.60" y2="1443.71" style="stroke:#000000;stroke-width:6.48"/>
	<line x1="3294.60" y1="1443.71" x2="3296.20" y2="1442.60" style="stroke:#000000;stroke-width:6.48"/>
	<line x1="3312.79" y1="1431.09" x2="3324.54" y2="1422.92" style="stroke:#000000;stroke-width:6.48"/>
	<line x1="3341.50" y1="1412.03" x2="3353.75" y2="1404.36" style="stroke:#000000;stroke-width:6.48"/>
	<line x1="3370.95" y1="1393.96" x2="3383.45" y2="1386.79" style="stroke:#000000;stroke-width:6.48"/>
	<line x1="3401.02" y1="1376.89" x2="3413.77" y2="1370.20" style="stroke:#000000;stroke-width:6.48"/>
	<line x1="3431.71" y1="1360.92" x2="3432.45" y2="1360.55" style="stroke:#000000;stroke-width:6.48"/>
	<line x1="3432.45" y1="1360.55" x2="3444.70" y2="1354.86" style="stroke:#000000;stroke-width:6.48"/>
	<line x1="3462.90" y1="1346.32" x2="3466.98" y2="1344.46" style="stroke:#000000;stroke-width:6.48"/>
	<line x1="3466.98" y1="1344.46" x2="3476.14" y2="1340.63" style="stroke:#000000;stroke-width:6.48"/>
	<line x1="3494.70" y1="1332.71" x2="3501.38" y2="1329.86" style="stroke:#000000;stroke-width:6.48"/>
	<line x1="3501.38" y1="1329.86" x2="3508.07" y2="1327.38" style="stroke:#000000;stroke-width:6.48"/>
	<line x1="3526.88" y1="1320.21" x2="3535.78" y2="1316.86" style="stroke:#000000;stroke-width:6.48"/>
	<line x1="3535.78" y1="1316.86" x2="3540.36" y2="1315.38" style="stroke:#000000;stroke-width:6.48"/>
	<line x1="3559.55" y1="1308.82" x2="3570.31" y2="1305.23" style="stroke:#000000;stroke-width:6.48"/>
	<line x1="3570.31" y1="1305.23" x2="3573.16" y2="1304.37" style="stroke:#000000;stroke-width:6.48"/>
	<line x1="3592.34" y1="1298.55" x2="3604.71" y2="1294.71" style="stroke:#000000;stroke-width:6.48"/>
	<line x1="3604.71" y1="1294.71" x2="3606.20" y2="1294.34" style="stroke:#000000;stroke-width:6.48"/>
	<line x1="3625.63" y1="1289.02" x2="3639.24" y2="1285.43" style="stroke:#000000;stroke-width:6.48"/>
	<line x1="3639.24" y1="1285.43" x2="3639.49" y2="1285.31" style="stroke:#000000;stroke-width:6.48"/>
	<line x1="3659.16" y1="1280.61" x2="3673.15" y2="1277.26" style="stroke:#000000;stroke-width:6.48"/>
	<line x1="3692.82" y1="1272.93" x2="3706.81" y2="1269.96" style="stroke:#000000;stroke-width:6.48"/>
	<line x1="3726.73" y1="1266.13" x2="3740.84" y2="1263.40" style="stroke:#000000;stroke-width:6.48"/>
	<line x1="3760.76" y1="1259.94" x2="3774.99" y2="1257.59" style="stroke:#000000;stroke-width:6.48"/>
	<line x1="3794.92" y1="1254.49" x2="3809.15" y2="1252.39" style="stroke:#000000;stroke-width:6.48"/>
	<path d="" stroke-linejoin="round" style="fill:none;stroke:#000000;stroke-width:6.48"/>
	<line x1="318.29" y1="2561.71" x2="318.29" y2="231.67" style="stroke:#000000;stroke-width:4.32"/>
	<line x1="318.29" y1="2514.18" x2="288.34" y2="2514.18" style="stroke:#000000;stroke-width:4.32"/>
	<text x="250.68" y="2514.18" style="font-family:'Helvetica';font-size:74.99px;fill:#000000" transform="rotate(-90 250.68,2514.18)" text-anchor="middle">0</text>
	<line x1="318.29" y1="1774.14" x2="288.34" y2="1774.14" style="stroke:#000000;stroke-width:4.32"/>
	<text x="250.68" y="1774.14" style="font-family:'Helvetica';font-size:74.99px;fill:#000000" transform="rotate(-90 250.68,1774.14)" text-anchor="middle">20,000,000</text>
	<line x1="318.29" y1="1034.09" x2="288.34" y2="1034.09" style="stroke:#000000;stroke-width:4.32"/>
	<text x="250.68" y="1034.09" style="font-family:'Helvetica';font-size:74.99px;fill:#000000" transform="rotate(-90 250.68,1034.09)" text-anchor="middle">40,000,000</text>
	<line x1="318.29" y1="294.04" x2="288.34" y2="294.04" style="stroke:#000000;stroke-width:4.32"/>
	<text x="250.68" y="294.04" style="font-family:'Helvetica';font-size:74.99px;fill:#000000" transform="rotate(-90 250.68,294.04)" text-anchor="middle">60,000,000</text>
	<text x="168.26" y="1396.69" style="font-family:'Helvetica';font-size:74.99px;fill:#000000" transform="rotate(-90 168.26,1396.69)" text-anchor="middle">Population</text>
	<line x1="318.29" y1="2561.71" x2="3859.02" y2="2561.71" style="stroke:#000000;stroke-width:4.32"/>
	<line x1="365.81" y1="2561.71" x2="365.81" y2="2591.65" style="stroke:#000000;stroke-width:4.32"/>
	<text x="365.81" y="2659.19" style="font-family:'Helvetica';font-size:74.99px;fill:#000000" text-anchor="middle">0</text>
	<line x1="1054.97" y1="2561.71" x2="1054.97" y2="2591.65" style="stroke:#000000;stroke-width:4.32"/>
	<text x="1054.97" y="2659.19" style="font-family:'Helvetica';font-size:74.99px;fill:#000000" text-anchor="middle">20</text>
	<line x1="1744.13" y1="2561.71" x2="1744.13" y2="2591.65" style="stroke:#000000;stroke-width:4.32"/>
	<text x="1744.13" y="2659.19" style="font-family:'Helvetica';font-size:74.99px;fill:#000000" text-anchor="middle">40</text>
	<line x1="2433.30" y1="2561.71" x2="2433.30" y2="2591.65" style="stroke:#000000;stroke-width:4.32"/>
	<text x="2433.30" y="2659.19" style="font-family:'Helvetica';font-size:74.99px;fill:#000000" text-anchor="middle">60</text>
	<line x1="3122.46" y1="2561.71" x2="3122.46" y2="2591.65" style="stroke:#000000;stroke-width:4.32"/>
	<text x="3122.46" y="2659.19" style="font-family:'Helvetica';font-size:74.99px;fill:#000000" text-anchor="middle">80</text>
	<line x1="3811.50" y1="2561.71" x2="3811.50" y2="2591.65" style="stroke:#000000;stroke-width:4.32"/>
	<text x="3811.50" y="2659.19" style="font-family:'Helvetica';font-size:74.99px;fill:#000000" text-anchor="middle">100</text>
	<text x="2088.65" y="2741.61" style="font-family:'Helvetica';font-size:74.99px;fill:#000000" text-anchor="middle">Time, days</text>
	<rect x="3027.30" y="257.66" width="805.86" height="369.78" style="fill:#FFFFFF"/>
	<rect x="3029.46" y="259.82" width="801.54" height="365.46" style="fill:none;stroke:#F0F0F0;stroke-width:4.32"/>
	<line x1="3059.72" y1="327.58" x2="3340.51" y2="327.58" style="stroke:#000000;stroke-width:6.48"/>
	<line x1="3059.72" y1="442.54" x2="3117.26" y2="442.54" style="stroke:#000000;stroke-width:6.48"/>
	<line x1="3146.10" y1="442.54" x2="3203.64" y2="442.54" style="stroke:#000000;stroke-width:6.48"/>
	<line x1="3232.47" y1="442.54" x2="3290.14" y2="442.54" style="stroke:#000000;stroke-width:6.48"/>
	<line x1="3318.85" y1="442.54" x2="3340.51" y2="442.54" style="stroke:#000000;stroke-width:6.48"/>
	<line x1="3059.72" y1="557.51" x2="3074.07" y2="557.51" style="stroke:#000000;stroke-width:6.48"/>
	<line x1="3094.24" y1="557.51" x2="3108.60" y2="557.51" style="stroke:#000000;stroke-width:6.48"/>
	<line x1="3128.77" y1="557.51" x2="3143.25" y2="557.51" style="stroke:#000000;stroke-width:6.48"/>
	<line x1="3163.42" y1="557.51" x2="3177.78" y2="557.51" style="stroke:#000000;stroke-width:6.48"/>
	<line x1="3197.95" y1="557.51" x2="3212.30" y2="557.51" style="stroke:#000000;stroke-width:6.48"/>
	<line x1="3232.47" y1="557.51" x2="3246.83" y2="557.51" style="stroke:#000000;stroke-width:6.48"/>
	<line x1="3267.00" y1="557.51" x2="3281.36" y2="557.51" style="stroke:#000000;stroke-width:6.48"/>
	<line x1="3301.53" y1="557.51" x2="3315.88" y2="557.51" style="stroke:#000000;stroke-width:6.48"/>
	<line x1="3336.05" y1="557.51" x2="3340.51" y2="557.51" style="stroke:#000000;stroke-width:6.48"/>
	<text x="3400.40" y="353.86" style="font-family:'Helvetica';font-size:74.99px;fill:#000000">Susceptible</text>
	<text x="3400.40" y="468.82" style="font-family:'Helvetica';font-size:74.99px;fill:#000000">Infected</text>
	<text x="3400.40" y="583.79" style="font-family:'Helvetica';font-size:74.99px;fill:#000000">Recovered</text>
	<text x="2088.65" y="187.25" style="font-family:'Helvetica';font-size:104.94px;fill:#000000" text-anchor="middle">SIR Model</text>
</svg>
